<svg width="30" height="31" viewBox="0 0 30 31" fill="none" xmlns="http://www.w3.org/2000/svg">
<ellipse cx="15" cy="15.1815" rx="14.0625" ry="14.2328" fill="#FDFDFE"/>
<path d="M28.0625 15.1815C28.0625 22.5011 22.2029 28.4143 15 28.4143C7.79709 28.4143 1.9375 22.5011 1.9375 15.1815C1.9375 7.86187 7.79709 1.94873 15 1.94873C22.2029 1.94873 28.0625 7.86187 28.0625 15.1815Z" stroke="#EF4444" stroke-opacity="0.85" stroke-width="2"/>
<ellipse cx="14.875" cy="15.1184" rx="9.375" ry="9.48852" fill="#FDFDFE"/>
<path d="M18.4821 6.35766C20.7712 7.32425 22.6006 9.18307 23.5462 11.5048L23.0831 11.6934C23.5127 12.7483 23.75 13.9046 23.75 15.1184C23.75 16.3322 23.5127 17.4885 23.0831 18.5434L23.5462 18.732C22.6006 21.0537 20.7712 22.9126 18.4821 23.8791L18.2876 23.4185C17.2376 23.8619 16.0852 24.1069 14.875 24.1069C13.6648 24.1069 12.5124 23.8619 11.4624 23.4185L11.2679 23.8791C8.97878 22.9126 7.14938 21.0537 6.20381 18.732L6.66688 18.5434C6.23729 17.4885 6 16.3322 6 15.1184C6 13.9046 6.23729 12.7483 6.66688 11.6934L6.20381 11.5048C7.14938 9.18307 8.97878 7.32425 11.2679 6.35766L11.4624 6.81828C12.5124 6.37491 13.6648 6.12988 14.875 6.12988C16.0852 6.12988 17.2376 6.37491 18.2876 6.81828L18.4821 6.35766Z" stroke="#EF4444" stroke-opacity="0.5" stroke-dasharray="8 8"/>
<line y1="-0.5" x2="34.5837" y2="-0.5" transform="matrix(0.702839 -0.711349 0.702839 0.711349 2.875 27.511)" stroke="#EF4444" stroke-opacity="0.5" stroke-dasharray="4 4"/>
<line x1="14.5625" y1="30.3" x2="14.5625" y2="4.76837e-05" stroke="#EF4444" stroke-opacity="0.5" stroke-dasharray="4 4"/>
<line y1="14.6816" x2="30" y2="14.6816" stroke="#EF4444" stroke-opacity="0.5" stroke-dasharray="4 4"/>
<line y1="-0.5" x2="34.5837" y2="-0.5" transform="matrix(0.702839 0.711349 -0.702839 0.711349 2.75 2.90991)" stroke="#EF4444" stroke-opacity="0.5" stroke-dasharray="4 4"/>
</svg>
